<svg width="75" height="75" viewBox="0 0 75 75" fill="none" xmlns="http://www.w3.org/2000/svg">
<mask id="mask0_133_333" style="mask-type:alpha" maskUnits="userSpaceOnUse" x="0" y="0" width="75" height="75">
<circle cx="37.5" cy="37.5" r="37.5" fill="#C4C4C4"/>
</mask>
<g mask="url(#mask0_133_333)">
<path d="M37.4996 -129.135L37.9156 31.6827L61.2143 -127.439L38.7393 31.8011L84.4462 -122.385L39.5378 32.0356L106.722 -114.077L40.2947 32.3812L127.589 -102.682L40.9947 32.8311L146.623 -88.4345L41.6236 33.3761L163.434 -71.6229L42.1685 34.0049L177.682 -52.5898L42.6184 34.705L189.076 -31.7227L42.9641 35.4619L197.385 -9.44652L43.1985 36.2603L202.439 13.7854L43.317 37.084L204.135 37.5001L43.317 37.9161L202.439 61.2148L43.1985 38.7398L197.385 84.4467L42.9641 39.5382L189.076 106.723L42.6184 40.2952L177.682 127.59L42.1685 40.9952L163.434 146.623L41.6236 41.6241L146.623 163.435L40.9947 42.169L127.589 177.683L40.2947 42.6189L106.722 189.077L39.5378 42.9646L84.4462 197.385L38.7393 43.199L61.2143 202.439L37.9156 43.3175L37.4996 204.135L37.0835 43.3175L13.7849 202.439L36.2599 43.199L-9.44701 197.385L35.4614 42.9646L-31.7232 189.077L34.7045 42.6189L-52.5903 177.683L34.0045 42.169L-71.6233 163.435L33.3756 41.6241L-88.435 146.623L32.8306 40.9952L-102.683 127.59L32.3808 40.2952L-114.077 106.723L32.0351 39.5382L-122.386 84.4467L31.8006 38.7398L-127.44 61.2148L31.6822 37.9161L-129.136 37.5001L31.6822 37.084L-127.44 13.7854L31.8006 36.2603L-122.386 -9.44652L32.0351 35.4619L-114.077 -31.7227L32.3808 34.705L-102.683 -52.5898L32.8306 34.0049L-88.435 -71.6229L33.3756 33.3761L-71.6233 -88.4345L34.0045 32.8311L-52.5903 -102.682L34.7045 32.3812L-31.7232 -114.077L35.4614 32.0356L-9.44701 -122.385L36.2599 31.8011L13.7849 -127.439L37.0835 31.6827L37.4996 -129.135Z" fill="white"/>
</g>
</svg>
