<svg width="75" height="75" viewBox="0 0 75 75" fill="none" xmlns="http://www.w3.org/2000/svg">
<mask id="mask0_170_1491" style="mask-type:alpha" maskUnits="userSpaceOnUse" x="0" y="0" width="75" height="75">
<circle cx="37.5" cy="37.5" r="37.5" fill="white"/>
</mask>
<g mask="url(#mask0_170_1491)">
<path fill-rule="evenodd" clip-rule="evenodd" d="M38.8397 26.8968L37.5002 0L36.1607 26.8968L28.1744 1.17813L33.5659 27.563L19.4345 4.6385L31.2183 28.8536L11.8297 10.1637L29.2654 30.6875L5.83792 17.4065L27.8299 32.9495L1.8356 25.9119L27.002 35.4974L0.0742188 35.1454L26.8338 38.1711L0.664448 44.5268L27.3358 40.8026L3.56921 53.4667L28.4765 43.2267L8.60597 61.4034L30.1841 45.2909L15.4583 67.8381L32.3515 46.8655L23.6956 72.3666L34.8423 47.8517L32.8002 74.7043L37.5002 48.1875L42.2002 74.7043L40.1581 47.8517L51.3049 72.3666L42.649 46.8655L59.5422 67.8381L44.8163 45.2909L66.3945 61.4034L46.524 43.2267L71.4312 53.4667L47.6646 40.8026L74.336 44.5268L48.1666 38.1711L74.9262 35.1454L47.9984 35.4974L73.1648 25.9119L47.1706 32.9495L69.1625 17.4065L45.7351 30.6875L63.1707 10.1637L43.7822 28.8536L55.566 4.6385L41.4346 27.563L46.8261 1.17813L38.8397 26.8968ZM37.5002 46C42.1946 46 46.0002 42.1944 46.0002 37.5C46.0002 32.8056 42.1946 29 37.5002 29C32.8058 29 29.0002 32.8056 29.0002 37.5C29.0002 42.1944 32.8058 46 37.5002 46Z" fill="white"/>
</g>
</svg>
