<svg width="474" height="122" viewBox="0 0 474 122" fill="none" xmlns="http://www.w3.org/2000/svg">
<path fill-rule="evenodd" clip-rule="evenodd" d="M26.0411 80.482L26.2808 82.2067C26.9642 87.1238 28.2746 90.5135 30.0138 92.6305C33.258 96.5554 39.031 98.7872 47.9649 98.7872C53.3529 98.7872 57.5787 98.1926 60.7239 97.0861C63.718 96.0208 65.7971 94.5588 67.1338 92.7918C68.4598 91.0389 69.175 88.8284 69.175 86.0372C69.175 83.0796 67.9415 80.8602 65.2722 79.193C62.3235 77.4038 57.5062 75.7221 50.6481 74.2245L50.6381 74.2223L38.8023 71.5741C27.1551 68.9481 18.7833 66.0359 13.9899 62.7244C5.7989 57.1304 1.82039 48.3969 1.82039 36.9462C1.82039 26.4073 5.69213 17.5708 13.3989 10.579C21.1811 3.51885 32.4365 0.151282 46.8272 0.151282C58.98 0.151282 69.4535 3.38334 78.1381 9.92967C87.039 16.5491 91.6385 26.1824 92.0604 38.542L92.131 40.6103H65.727L65.6136 38.7307C65.2469 32.6497 62.6621 28.558 57.8959 26.0923C54.614 24.4112 50.4243 23.5154 45.2343 23.5154C39.4652 23.5154 35.0951 24.6779 31.9409 26.8045C28.9032 28.8525 27.4376 31.6091 27.4376 35.2821C27.4376 36.9692 27.8092 38.3447 28.4838 39.4788C29.1594 40.6146 30.2046 41.6183 31.7184 42.4594L31.732 42.467L31.7455 42.4748C33.728 43.6171 38.2955 45.1006 45.7722 46.8759L45.776 46.8768L65.0407 51.4906C65.0411 51.4907 65.0415 51.4908 65.0419 51.4909C73.6196 53.5399 80.306 56.3255 84.9258 59.9568C92.1685 65.6475 95.7023 73.867 95.7023 84.2974C95.7023 95.0762 91.522 104.097 83.2516 111.228L83.2508 111.228C74.9814 118.35 63.429 121.773 48.8751 121.773C34.0258 121.773 22.0809 118.405 13.2737 111.432L13.2679 111.428C4.40348 104.355 0 94.6285 0 82.482V80.482H26.0411ZM64.576 53.4359L45.3102 48.8218C37.8769 47.0568 33.0225 45.5188 30.747 44.2077C27.2074 42.241 25.4376 39.2658 25.4376 35.2821C25.4376 30.9453 27.2327 27.5667 30.8229 25.1462C34.4131 22.7256 39.2169 21.5154 45.2343 21.5154C50.645 21.5154 55.1707 22.4483 58.8115 24.3141C64.2726 27.138 67.2055 31.9034 67.61 38.6103H90.0615C90.0385 37.9344 90.0025 37.2677 89.9536 36.6103C89.1452 25.7394 84.8072 17.3796 76.9395 11.5308C68.6466 5.27778 58.6092 2.15128 46.8272 2.15128C32.7191 2.15128 22.0243 5.45427 14.7428 12.0603C7.46118 18.6662 3.82039 26.9615 3.82039 36.9462C3.82039 47.8889 7.5876 55.932 15.122 61.0756C19.5719 64.1517 27.6119 67.0009 39.2422 69.6231L51.0748 72.2705C58.0024 73.7833 63.0843 75.5231 66.3206 77.4897C69.5568 79.5068 71.175 82.356 71.175 86.0372C71.175 92.3406 67.9134 96.6521 61.3903 98.9718C57.9518 100.182 53.4767 100.787 47.9649 100.787C38.7618 100.787 32.264 98.4927 28.4716 93.9038C26.3983 91.3825 25.0078 87.5752 24.2998 82.482H2C2 83.1571 2.01413 83.8238 2.04239 84.482C2.49973 95.1344 6.65734 103.595 14.5152 109.864C22.8587 116.47 34.312 119.773 48.8751 119.773C63.1349 119.773 74.1584 116.42 81.9456 109.713C89.7834 102.956 93.7023 94.4838 93.7023 84.2974C93.7023 74.3632 90.3649 66.7739 83.6902 61.5295C79.392 58.1509 73.0206 55.453 64.576 53.4359ZM180.881 88.8018L180.886 88.7946C185.961 82.4686 188.638 73.2958 188.638 61C188.638 48.7569 185.962 39.6083 180.886 33.281L180.881 33.2746L180.876 33.2683C175.87 26.9229 169.133 23.7423 160.45 23.7423C151.761 23.7423 144.964 26.9033 139.856 33.2123C134.735 39.5379 132.034 48.7078 132.034 61C132.034 73.2922 134.735 82.4621 139.856 88.7877C144.964 95.0967 151.761 98.2577 160.45 98.2577C169.139 98.2577 175.877 95.0978 180.881 88.8018ZM198.489 108.415C189.56 117.567 176.771 122 160.45 122C144.13 122 131.342 117.568 122.413 108.417C110.597 97.2988 104.824 81.3851 104.824 61C104.824 40.2393 110.583 24.301 122.426 13.5692C131.355 4.42782 144.138 0 160.45 0C176.763 0 189.547 4.42836 198.475 13.5708C210.267 24.3032 216 40.241 216 61C216 81.3834 210.253 97.2965 198.489 108.415ZM197.086 15.0103C188.641 6.33675 176.429 2 160.45 2C144.471 2 132.259 6.33675 123.815 15.0103C112.488 25.247 106.824 40.5769 106.824 61C106.824 81.0197 112.488 96.3496 123.815 106.99C132.259 115.663 144.471 120 160.45 120C176.429 120 188.641 115.663 197.086 106.99C208.362 96.3496 214 81.0197 214 61C214 40.5769 208.362 25.247 197.086 15.0103ZM182.447 90.0462C177.036 96.8538 169.704 100.258 160.45 100.258C151.196 100.258 143.814 96.8538 138.302 90.0462C132.79 83.2385 130.034 73.5564 130.034 61C130.034 48.4436 132.79 38.7615 138.302 31.9538C143.814 25.1462 151.196 21.7423 160.45 21.7423C169.704 21.7423 177.036 25.1714 182.447 32.0295C187.908 38.8372 190.638 48.494 190.638 61C190.638 73.5564 187.908 83.2385 182.447 90.0462Z" fill="white"/>
<path d="M247.663 34.7974L255.811 70.0772L257.565 79.9003L259.362 70.2862L266.298 34.7974H279.877L287.189 70.0772L289.07 79.9003L290.95 70.4534L299.181 34.7974H312.259L294.919 96.4116H282.635L275.198 60.3794L273.025 48.4662L270.852 60.3794L263.415 96.4116H251.465L234 34.7974H247.663Z" fill="white"/>
<path d="M332.231 73.1286H347.858L340.17 48.8842L332.231 73.1286ZM333.025 34.7974H347.565L369.376 96.4116H355.421L351.451 83.746H328.763L324.501 96.4116H311.047L333.025 34.7974Z" fill="white"/>
<path d="M404.515 34.7974H419.098L398.499 73.254V96.4116H385.63V73.254L364.32 34.7974H379.487L392.273 61.6334L404.515 34.7974Z" fill="white"/>
<path d="M435.769 77.3923C436.159 80.2069 436.925 82.3108 438.067 83.7042C440.156 86.2401 443.735 87.508 448.805 87.508C451.841 87.508 454.306 87.1736 456.201 86.5048C459.794 85.2229 461.591 82.8403 461.591 79.3569C461.591 77.3226 460.699 75.7481 458.916 74.6334C457.134 73.5466 454.334 72.5852 450.518 71.7492L444 70.2862C437.593 68.8371 433.164 67.2626 430.713 65.5627C426.563 62.7203 424.487 58.2755 424.487 52.2283C424.487 46.7106 426.493 42.1265 430.504 38.4759C434.515 34.8253 440.407 33 448.178 33C454.669 33 460.198 34.7278 464.766 38.1833C469.362 41.6109 471.772 46.5991 471.994 53.1479H459.627C459.404 49.4416 457.788 46.8081 454.78 45.2476C452.774 44.2165 450.281 43.701 447.301 43.701C443.986 43.701 441.34 44.3698 439.362 45.7074C437.384 47.045 436.396 48.9121 436.396 51.3087C436.396 53.5102 437.37 55.1543 439.32 56.2412C440.574 56.9657 443.248 57.8156 447.343 58.791L457.955 61.3408C462.607 62.4555 466.117 63.9464 468.485 65.8135C472.162 68.7117 474 72.9057 474 78.3955C474 84.0247 471.841 88.7063 467.524 92.4405C463.234 96.1468 457.162 98 449.306 98C441.284 98 434.975 96.1747 430.379 92.5241C425.783 88.8457 423.485 83.8017 423.485 77.3923H435.769Z" fill="white"/>
<path d="M196 96C196 89.3726 201.373 84 208 84C214.627 84 220 89.3726 220 96C220 102.627 214.627 108 208 108C201.373 108 196 102.627 196 96Z" fill="white"/>
<path fill-rule="evenodd" clip-rule="evenodd" d="M208 110C200.268 110 194 103.732 194 96C194 88.268 200.268 82 208 82C215.732 82 222 88.268 222 96C222 103.732 215.732 110 208 110ZM208 84C201.373 84 196 89.3726 196 96C196 102.627 201.373 108 208 108C214.627 108 220 102.627 220 96C220 89.3726 214.627 84 208 84Z" fill="white"/>
</svg>
