<svg width="179" height="42" viewBox="0 0 179 42" fill="none" xmlns="http://www.w3.org/2000/svg">
<path fill-rule="evenodd" clip-rule="evenodd" d="M134.395 4.60308C109.365 7.21689 102.22 8.08305 88.3919 10.1801C74.0621 12.3532 63.8297 14.1544 47.626 17.3559C43.8697 18.0981 39.8431 18.8446 35.1185 19.6746C17.7629 22.7236 14.3952 23.4213 8.85031 25.1162C6.10298 25.9562 3.71768 26.5816 2.37 26.8158C1.1718 27.0238 0.958654 27.1054 0.981065 27.3473C1.00087 27.5611 2.94908 27.5722 3.99485 27.3643C4.36963 27.29 5.38598 27.0988 6.25351 26.9397C7.12103 26.7806 9.02657 26.3919 10.488 26.0761C13.9295 25.3323 15.5884 25.0453 21.5398 24.1645C31.5448 22.6837 39.0921 21.4494 48.3485 19.7803C51.7597 19.1651 56.289 18.3483 58.4135 17.9652C74.5267 15.0592 94.2525 11.9788 106.342 10.4809C121.012 8.66283 166.653 4.07276 165.914 4.48955C165.621 4.65481 160.488 6.15365 157.404 6.97463C154.571 7.72881 149.828 8.87659 143.987 10.2213C141.217 10.8592 137.415 11.7391 135.539 12.1766C128.491 13.8205 126.168 14.3428 122.155 15.1864C103.669 19.0726 91.5009 22.0993 74.6287 27.0076C64.5999 29.9251 56.4403 32.9682 47.408 37.1595C42.2728 39.5424 41.7865 39.9268 42.4225 41.101C42.8363 41.865 45.5256 41.7234 50.8774 40.6557C60.6578 38.7046 69.8646 37.0433 78.8004 35.6172C84.4055 34.7227 85.1466 34.5908 90.8268 33.478C92.9483 33.0625 96.621 32.4028 98.9882 32.0124L103.292 31.3024L97.5215 31.7043C88.7768 32.3132 79.4159 33.1793 76.3515 33.6631C66.2061 35.2646 60.7018 36.2869 51.7368 38.2344C49.6 38.6987 47.7945 39.0606 47.7246 39.0387C47.0501 38.8271 61.2071 33.4072 68.0028 31.2754C83.3434 26.4628 99.2298 22.4666 123.73 17.2571C125.967 16.7813 130.455 15.7777 133.701 15.027C136.948 14.2761 142.065 13.0934 145.074 12.3985C156.653 9.72411 160.092 8.80778 171.147 5.4508C178.228 3.30069 178.265 3.28442 178.371 2.28588C178.487 1.18797 177.864 0.751574 176.194 0.763009C174.608 0.773742 145.141 3.4808 134.395 4.60308ZM103.75 31.1509C103.889 31.1712 104.087 31.1519 104.188 31.1081C104.29 31.0642 104.176 31.0475 103.935 31.071C103.693 31.0946 103.61 31.1305 103.75 31.1509Z" fill="#314281"/>
</svg>
