<svg width="220" height="50" viewBox="0 0 220 50" fill="none" xmlns="http://www.w3.org/2000/svg">
<path fill-rule="evenodd" clip-rule="evenodd" d="M217.811 0.452199C216.003 1.19747 213.533 2.05596 209.251 3.42704C199.819 6.44661 193.879 9.06738 176.382 17.9284C164.482 23.955 160.746 25.6817 156.537 27.0991C154.686 27.7227 152.141 27.9598 151.197 27.5967L150.681 27.3985L150.764 26.7889C150.947 25.4469 151.746 23.746 154.051 19.7901C157.724 13.4867 158.64 11.0614 158.41 8.25568C157.844 1.36484 148.988 2.82303 132.078 12.5914C130.847 13.3028 127.131 15.5955 123.821 17.6862C110.876 25.8635 108.348 27.2972 106.778 27.3491L105.983 27.3754L106.003 26.7794C106.034 25.8406 106.546 24.3695 108.232 20.3696C111.659 12.2367 112.082 8.91199 109.983 6.59383C108.007 4.41221 101.896 5.40981 94.387 9.13921C88.7449 11.9415 77.0991 19.1111 61.3596 29.4719C46.7432 39.0934 44.4797 40.4596 43.9379 39.9864C43.7542 39.8259 44.5273 38.2952 47.958 32.0248C54.5878 19.9077 55.6793 17.2844 55.6285 13.5901C55.5353 6.81135 50.7015 7.75696 36.4032 17.351C27.0017 23.6593 18.637 30.6837 7.72111 41.4374C1.95927 47.1136 0.806302 48.3471 0.815005 48.8259C0.821627 49.1903 1.16881 49.2171 1.27804 48.8617C1.36502 48.5793 3.35448 46.6885 6.0346 44.3414C7.0032 43.4931 8.85123 41.8128 10.1413 40.6074C16.4006 34.7593 27.4427 25.5809 32.5968 21.9416C42.1824 15.1737 48.9318 11.3574 51.8802 11.0383C53.5659 10.8559 53.8678 11.2892 53.8147 13.8156C53.7469 17.038 52.3316 20.376 46.2994 31.5414C41.6561 40.136 41.3848 40.9481 42.9297 41.6247C44.8847 42.4807 47.4306 41.1332 62.9123 31.0484C91.1662 12.6438 101.891 7.01757 107.403 7.70826C110.025 8.03678 109.685 11.9466 106.332 20.0303C103.726 26.3109 103.468 28.0086 104.978 28.9465C107.076 30.2504 109.782 28.998 125.651 19.3764C139.49 10.9855 147.25 7.29351 152.311 6.69209C155.264 6.34107 155.872 6.81225 155.781 9.38101C155.709 11.4269 154.908 13.2883 151.818 18.5823C147.203 26.4901 146.958 29.2506 150.793 30.1655C154.895 31.1443 159.053 29.6017 177.748 20.1654C187.731 15.1271 191.181 13.4664 198.672 10.0965C201.33 8.90077 205.054 7.11833 206.949 6.13562C208.844 5.15278 212.019 3.54119 214.006 2.55425C215.992 1.5673 217.972 0.583558 218.406 0.368206C219.456 -0.15352 219.188 -0.115786 217.811 0.452199Z" fill="#314281"/>
</svg>
