<svg width="120" height="54" viewBox="0 0 120 54" fill="none" xmlns="http://www.w3.org/2000/svg">
<path fill-rule="evenodd" clip-rule="evenodd" d="M24.1424 43.0911C24.4068 42.0569 24.6293 41.1646 24.7444 40.6924C25.4381 37.8176 28.0274 30.8862 28.1859 25.4599C28.3083 21.32 27.0203 18.0414 23.1721 17.3055C19.6744 16.6367 16.2976 18.9192 13.4069 22.8648C7.18551 31.3566 2.97432 47.4686 2.95909 52.6647C2.95773 53.2319 3.41436 53.6923 3.98161 53.6936C4.54628 53.6951 5.00664 53.2385 5.00799 52.6713C5.02385 47.6849 9.08814 32.2281 15.0605 24.0757C17.3954 20.8895 19.9627 18.7789 22.7881 19.3198C25.5768 19.8522 26.2256 22.3977 26.1368 25.3988C25.9836 30.6798 23.4279 37.4127 22.751 40.2116C22.3275 41.9664 20.5236 48.6132 20.5062 49.2202C20.4839 49.9802 21.0369 50.205 21.224 50.2651C21.3689 50.3119 22.1064 50.4986 22.5157 49.6613C28.3599 37.7266 45.5885 23.4577 64.4072 17.1444C83.0604 10.8863 103.337 12.4785 115.534 32.333C115.832 32.8147 116.464 32.9654 116.945 32.6708C117.427 32.3737 117.578 31.7416 117.281 31.26C104.5 10.457 83.2977 8.64396 63.7562 15.1998C47.2867 20.7244 32.0416 32.2194 24.1424 43.0911Z" fill="#314281"/>
<path fill-rule="evenodd" clip-rule="evenodd" d="M115.634 30.8514C113.352 30.0542 111.105 29.1878 108.76 28.5674C102.512 26.9135 95.6697 26.5183 89.3524 27.9888C88.7998 28.1188 88.4582 28.6702 88.5855 29.2204C88.7154 29.773 89.2669 30.1144 89.817 29.9872C95.8118 28.5879 102.307 28.9805 108.234 30.5502C110.919 31.2616 113.475 32.3009 116.103 33.181C116.235 33.2233 117.365 33.6407 117.628 33.6632C118.239 33.7192 118.528 33.3518 118.64 33.1647C118.736 33.0095 118.813 32.8008 118.806 32.5266C118.8 32.3016 118.687 31.8776 118.415 31.3428C117.551 29.627 114.961 25.9142 114.6 25.2597C110.465 17.7586 107.877 10.0857 104.95 2.07583C104.754 1.54483 104.165 1.27007 103.634 1.46365C103.103 1.65723 102.83 2.24649 103.024 2.77763C105.987 10.8892 108.619 18.6556 112.805 26.2472C113.052 26.6979 114.554 29.1184 115.634 30.8514Z" fill="#314281"/>
</svg>
